<mxfile host="app.diagrams.net" agent="Mozilla/5.0 (X11; Linux x86_64) AppleWebKit/537.36 (KHTML, like Gecko) Chrome/127.0.0.0 Safari/537.36" version="24.7.7">
  <diagram name="Pagina-1" id="n04WAolzsHExA_IVHHAF">
    <mxGraphModel dx="2065" dy="1890" grid="1" gridSize="10" guides="1" tooltips="1" connect="1" arrows="1" fold="1" page="1" pageScale="1" pageWidth="827" pageHeight="1169" math="0" shadow="0">
      <root>
        <mxCell id="0" />
        <mxCell id="1" parent="0" />
        <mxCell id="PjUthalo70veDusQ6-nb-26" value="Real time" style="rounded=0;whiteSpace=wrap;html=1;fillColor=#f5f5f5;fontColor=#333333;strokeColor=#666666;verticalAlign=top;" vertex="1" parent="1">
          <mxGeometry x="60" y="60" width="420" height="280" as="geometry" />
        </mxCell>
        <mxCell id="PjUthalo70veDusQ6-nb-36" value="~Offline" style="rounded=0;whiteSpace=wrap;html=1;fillColor=#f5f5f5;fontColor=#333333;strokeColor=#666666;verticalAlign=bottom;" vertex="1" parent="1">
          <mxGeometry x="60" y="350" width="200" height="280" as="geometry" />
        </mxCell>
        <mxCell id="PjUthalo70veDusQ6-nb-3" style="edgeStyle=orthogonalEdgeStyle;rounded=0;orthogonalLoop=1;jettySize=auto;html=1;entryX=0.5;entryY=0;entryDx=0;entryDy=0;jumpStyle=arc;" edge="1" parent="1" source="FTnSo7kZSwf_jX0kh8Uz-1" target="FTnSo7kZSwf_jX0kh8Uz-2">
          <mxGeometry relative="1" as="geometry" />
        </mxCell>
        <mxCell id="PjUthalo70veDusQ6-nb-10" style="edgeStyle=orthogonalEdgeStyle;rounded=0;orthogonalLoop=1;jettySize=auto;html=1;entryX=0;entryY=0.5;entryDx=0;entryDy=0;jumpStyle=arc;" edge="1" parent="1" source="FTnSo7kZSwf_jX0kh8Uz-1" target="FTnSo7kZSwf_jX0kh8Uz-4">
          <mxGeometry relative="1" as="geometry" />
        </mxCell>
        <mxCell id="FTnSo7kZSwf_jX0kh8Uz-1" value="RCP&lt;br&gt;Lead: Martin / Josh" style="rounded=0;whiteSpace=wrap;html=1;" parent="1" vertex="1">
          <mxGeometry x="130" y="250" width="120" height="60" as="geometry" />
        </mxCell>
        <mxCell id="PjUthalo70veDusQ6-nb-6" style="edgeStyle=orthogonalEdgeStyle;rounded=0;orthogonalLoop=1;jettySize=auto;html=1;entryX=0.5;entryY=0;entryDx=0;entryDy=0;jumpStyle=arc;" edge="1" parent="1" source="FTnSo7kZSwf_jX0kh8Uz-2" target="PjUthalo70veDusQ6-nb-5">
          <mxGeometry relative="1" as="geometry" />
        </mxCell>
        <mxCell id="FTnSo7kZSwf_jX0kh8Uz-2" value="DAT&lt;br&gt;Lead: Casey" style="rounded=0;whiteSpace=wrap;html=1;" parent="1" vertex="1">
          <mxGeometry x="130" y="390" width="120" height="60" as="geometry" />
        </mxCell>
        <mxCell id="PjUthalo70veDusQ6-nb-18" style="edgeStyle=orthogonalEdgeStyle;rounded=0;orthogonalLoop=1;jettySize=auto;html=1;jumpStyle=arc;fillColor=#d5e8d4;strokeColor=#82b366;entryX=0.75;entryY=0;entryDx=0;entryDy=0;exitX=0.75;exitY=1;exitDx=0;exitDy=0;" edge="1" parent="1" source="FTnSo7kZSwf_jX0kh8Uz-3" target="FTnSo7kZSwf_jX0kh8Uz-4">
          <mxGeometry relative="1" as="geometry">
            <mxPoint x="200" y="40" as="targetPoint" />
            <Array as="points">
              <mxPoint x="420" y="60" />
              <mxPoint x="420" y="60" />
            </Array>
          </mxGeometry>
        </mxCell>
        <mxCell id="PjUthalo70veDusQ6-nb-22" style="edgeStyle=orthogonalEdgeStyle;rounded=0;orthogonalLoop=1;jettySize=auto;html=1;exitX=0.25;exitY=0;exitDx=0;exitDy=0;entryX=1;entryY=0.5;entryDx=0;entryDy=0;fillColor=#d5e8d4;strokeColor=#82b366;jumpStyle=arc;" edge="1" parent="1" source="FTnSo7kZSwf_jX0kh8Uz-3" target="PjUthalo70veDusQ6-nb-14">
          <mxGeometry relative="1" as="geometry">
            <Array as="points">
              <mxPoint x="360" y="-60" />
            </Array>
          </mxGeometry>
        </mxCell>
        <mxCell id="PjUthalo70veDusQ6-nb-23" style="edgeStyle=orthogonalEdgeStyle;rounded=0;orthogonalLoop=1;jettySize=auto;html=1;exitX=0;exitY=0.75;exitDx=0;exitDy=0;entryX=1;entryY=0.5;entryDx=0;entryDy=0;fillColor=#d5e8d4;strokeColor=#82b366;jumpStyle=arc;" edge="1" parent="1" source="FTnSo7kZSwf_jX0kh8Uz-3" target="PjUthalo70veDusQ6-nb-5">
          <mxGeometry relative="1" as="geometry">
            <Array as="points">
              <mxPoint x="290" y="25" />
              <mxPoint x="290" y="555" />
            </Array>
          </mxGeometry>
        </mxCell>
        <mxCell id="PjUthalo70veDusQ6-nb-40" style="edgeStyle=orthogonalEdgeStyle;rounded=0;orthogonalLoop=1;jettySize=auto;html=1;entryX=0.5;entryY=0;entryDx=0;entryDy=0;fillColor=#d5e8d4;strokeColor=#82b366;jumpStyle=arc;" edge="1" parent="1" source="FTnSo7kZSwf_jX0kh8Uz-3" target="FTnSo7kZSwf_jX0kh8Uz-6">
          <mxGeometry relative="1" as="geometry" />
        </mxCell>
        <mxCell id="PjUthalo70veDusQ6-nb-41" style="edgeStyle=orthogonalEdgeStyle;rounded=0;orthogonalLoop=1;jettySize=auto;html=1;exitX=0.5;exitY=1;exitDx=0;exitDy=0;entryX=0.75;entryY=0;entryDx=0;entryDy=0;fillColor=#d5e8d4;strokeColor=#82b366;jumpStyle=arc;" edge="1" parent="1" source="FTnSo7kZSwf_jX0kh8Uz-3" target="FTnSo7kZSwf_jX0kh8Uz-1">
          <mxGeometry relative="1" as="geometry">
            <Array as="points">
              <mxPoint x="390" y="90" />
              <mxPoint x="270" y="90" />
              <mxPoint x="270" y="250" />
            </Array>
          </mxGeometry>
        </mxCell>
        <mxCell id="PjUthalo70veDusQ6-nb-42" style="edgeStyle=orthogonalEdgeStyle;rounded=0;orthogonalLoop=1;jettySize=auto;html=1;exitX=0.25;exitY=1;exitDx=0;exitDy=0;entryX=1;entryY=0.5;entryDx=0;entryDy=0;fillColor=#d5e8d4;strokeColor=#82b366;jumpStyle=arc;" edge="1" parent="1" source="FTnSo7kZSwf_jX0kh8Uz-3" target="FTnSo7kZSwf_jX0kh8Uz-2">
          <mxGeometry relative="1" as="geometry">
            <Array as="points">
              <mxPoint x="360" y="160" />
              <mxPoint x="280" y="160" />
              <mxPoint x="280" y="420" />
            </Array>
          </mxGeometry>
        </mxCell>
        <mxCell id="FTnSo7kZSwf_jX0kh8Uz-3" value="MNC&lt;div&gt;Lead: Rick / James&lt;/div&gt;" style="rounded=0;whiteSpace=wrap;html=1;" parent="1" vertex="1">
          <mxGeometry x="330" y="-20" width="120" height="60" as="geometry" />
        </mxCell>
        <mxCell id="FTnSo7kZSwf_jX0kh8Uz-4" value="FTD/PT&lt;div&gt;Lead: Dean / Vikram&lt;/div&gt;" style="rounded=0;whiteSpace=wrap;html=1;" parent="1" vertex="1">
          <mxGeometry x="330" y="250" width="120" height="60" as="geometry" />
        </mxCell>
        <mxCell id="PjUthalo70veDusQ6-nb-12" style="edgeStyle=orthogonalEdgeStyle;rounded=0;orthogonalLoop=1;jettySize=auto;html=1;entryX=0.5;entryY=0;entryDx=0;entryDy=0;" edge="1" parent="1" source="FTnSo7kZSwf_jX0kh8Uz-5" target="FTnSo7kZSwf_jX0kh8Uz-3">
          <mxGeometry relative="1" as="geometry" />
        </mxCell>
        <mxCell id="FTnSo7kZSwf_jX0kh8Uz-5" value="OPL&lt;div&gt;Lead: Vanessa&lt;/div&gt;" style="rounded=0;whiteSpace=wrap;html=1;" parent="1" vertex="1">
          <mxGeometry x="330" y="-150" width="120" height="60" as="geometry" />
        </mxCell>
        <mxCell id="PjUthalo70veDusQ6-nb-2" style="edgeStyle=orthogonalEdgeStyle;rounded=0;orthogonalLoop=1;jettySize=auto;html=1;entryX=0.5;entryY=0;entryDx=0;entryDy=0;jumpStyle=arc;" edge="1" parent="1" source="FTnSo7kZSwf_jX0kh8Uz-6" target="FTnSo7kZSwf_jX0kh8Uz-1">
          <mxGeometry relative="1" as="geometry" />
        </mxCell>
        <mxCell id="PjUthalo70veDusQ6-nb-9" style="edgeStyle=orthogonalEdgeStyle;rounded=0;orthogonalLoop=1;jettySize=auto;html=1;entryX=0.5;entryY=0;entryDx=0;entryDy=0;jumpStyle=arc;" edge="1" parent="1" source="FTnSo7kZSwf_jX0kh8Uz-6" target="FTnSo7kZSwf_jX0kh8Uz-4">
          <mxGeometry relative="1" as="geometry" />
        </mxCell>
        <mxCell id="FTnSo7kZSwf_jX0kh8Uz-6" value="RCF&lt;br&gt;Lead: Jack" style="rounded=0;whiteSpace=wrap;html=1;" parent="1" vertex="1">
          <mxGeometry x="130" y="110" width="120" height="60" as="geometry" />
        </mxCell>
        <mxCell id="PjUthalo70veDusQ6-nb-5" value="ARC&lt;div&gt;Lead: Rachel&lt;/div&gt;" style="rounded=0;whiteSpace=wrap;html=1;" vertex="1" parent="1">
          <mxGeometry x="130" y="525" width="120" height="60" as="geometry" />
        </mxCell>
        <mxCell id="PjUthalo70veDusQ6-nb-7" value="&lt;h1 style=&quot;margin-top: 0px;&quot;&gt;DAT&lt;/h1&gt;&lt;p&gt;Creates data products. Since data volume is small, this can be done in semi-offline mode.&lt;/p&gt;&lt;p&gt;&lt;br&gt;&lt;/p&gt;" style="text;html=1;whiteSpace=wrap;overflow=hidden;rounded=0;" vertex="1" parent="1">
          <mxGeometry x="-80" y="360" width="180" height="110" as="geometry" />
        </mxCell>
        <mxCell id="PjUthalo70veDusQ6-nb-8" value="&lt;h1 style=&quot;margin-top: 0px;&quot;&gt;ARC&lt;/h1&gt;&lt;p&gt;Storage of data.&lt;/p&gt;" style="text;html=1;whiteSpace=wrap;overflow=hidden;rounded=0;" vertex="1" parent="1">
          <mxGeometry x="-80" y="490" width="180" height="80" as="geometry" />
        </mxCell>
        <mxCell id="PjUthalo70veDusQ6-nb-11" value="&lt;h1 style=&quot;margin-top: 0px;&quot;&gt;RCF&lt;/h1&gt;&lt;p&gt;Correlations.&lt;/p&gt;&lt;p&gt;Use hardware to split data and send to RCP and FTD.&lt;/p&gt;" style="text;html=1;whiteSpace=wrap;overflow=hidden;rounded=0;" vertex="1" parent="1">
          <mxGeometry x="-80" y="10" width="180" height="120" as="geometry" />
        </mxCell>
        <mxCell id="PjUthalo70veDusQ6-nb-13" value="&lt;h1 style=&quot;margin-top: 0px;&quot;&gt;OPL&lt;/h1&gt;&lt;p&gt;Coordinates operations mostly automatic, logic of observations. Uses MNC to carry out commands without knowing how. External input can influence opportunistic followup within window of 60s, i.e. GWs.&lt;/p&gt;" style="text;html=1;whiteSpace=wrap;overflow=hidden;rounded=0;" vertex="1" parent="1">
          <mxGeometry x="490" y="-290" width="180" height="160" as="geometry" />
        </mxCell>
        <mxCell id="PjUthalo70veDusQ6-nb-38" style="edgeStyle=orthogonalEdgeStyle;rounded=0;orthogonalLoop=1;jettySize=auto;html=1;exitX=0;exitY=0.75;exitDx=0;exitDy=0;entryX=0.25;entryY=0;entryDx=0;entryDy=0;" edge="1" parent="1" source="PjUthalo70veDusQ6-nb-14" target="FTnSo7kZSwf_jX0kh8Uz-6">
          <mxGeometry relative="1" as="geometry" />
        </mxCell>
        <mxCell id="PjUthalo70veDusQ6-nb-14" value="Array" style="rounded=0;whiteSpace=wrap;html=1;" vertex="1" parent="1">
          <mxGeometry x="190" y="-90" width="120" height="60" as="geometry" />
        </mxCell>
        <mxCell id="PjUthalo70veDusQ6-nb-15" value="&lt;h1 style=&quot;margin-top: 0px;&quot;&gt;MNC&lt;/h1&gt;&lt;p&gt;Stores state of system array, and sub-systems. No logic, doesn&#39;t know anything about observations feasibility. Knows how to talk to hardware.&lt;/p&gt;" style="text;html=1;whiteSpace=wrap;overflow=hidden;rounded=0;" vertex="1" parent="1">
          <mxGeometry x="490" y="-40" width="180" height="170" as="geometry" />
        </mxCell>
        <mxCell id="PjUthalo70veDusQ6-nb-24" value="&lt;h1 style=&quot;margin-top: 0px;&quot;&gt;RCP&lt;/h1&gt;&lt;p&gt;Turn visibilities into calibration solutions and images with bright sources subtracted.&lt;/p&gt;" style="text;html=1;whiteSpace=wrap;overflow=hidden;rounded=0;" vertex="1" parent="1">
          <mxGeometry x="-80" y="180" width="180" height="120" as="geometry" />
        </mxCell>
        <mxCell id="PjUthalo70veDusQ6-nb-25" value="&lt;h1 style=&quot;margin-top: 0px;&quot;&gt;FTD&lt;/h1&gt;&lt;p&gt;Analyses frequency domain of data. If it sees something it triggers data collection for later analysis.&lt;/p&gt;" style="text;html=1;whiteSpace=wrap;overflow=hidden;rounded=0;" vertex="1" parent="1">
          <mxGeometry x="490" y="180" width="180" height="120" as="geometry" />
        </mxCell>
        <mxCell id="PjUthalo70veDusQ6-nb-27" value="" style="shape=cylinder3;whiteSpace=wrap;html=1;boundedLbl=1;backgroundOutline=1;size=15;" vertex="1" parent="1">
          <mxGeometry x="140" y="330" width="30" height="50" as="geometry" />
        </mxCell>
        <mxCell id="PjUthalo70veDusQ6-nb-28" value="" style="shape=cylinder3;whiteSpace=wrap;html=1;boundedLbl=1;backgroundOutline=1;size=15;" vertex="1" parent="1">
          <mxGeometry x="140" y="460" width="30" height="50" as="geometry" />
        </mxCell>
        <mxCell id="PjUthalo70veDusQ6-nb-29" value="" style="shape=cylinder3;whiteSpace=wrap;html=1;boundedLbl=1;backgroundOutline=1;size=15;" vertex="1" parent="1">
          <mxGeometry x="145" y="190" width="30" height="50" as="geometry" />
        </mxCell>
        <mxCell id="PjUthalo70veDusQ6-nb-30" value="" style="shape=cylinder3;whiteSpace=wrap;html=1;boundedLbl=1;backgroundOutline=1;size=15;" vertex="1" parent="1">
          <mxGeometry x="115" y="50" width="30" height="50" as="geometry" />
        </mxCell>
        <mxCell id="PjUthalo70veDusQ6-nb-31" value="" style="shape=cylinder3;whiteSpace=wrap;html=1;boundedLbl=1;backgroundOutline=1;size=15;" vertex="1" parent="1">
          <mxGeometry x="350" y="190" width="30" height="50" as="geometry" />
        </mxCell>
        <mxCell id="PjUthalo70veDusQ6-nb-32" value="" style="shape=cylinder3;whiteSpace=wrap;html=1;boundedLbl=1;backgroundOutline=1;size=15;" vertex="1" parent="1">
          <mxGeometry x="300" y="290" width="30" height="50" as="geometry" />
        </mxCell>
      </root>
    </mxGraphModel>
  </diagram>
</mxfile>
